<svg xmlns="http://www.w3.org/2000/svg" xmlns:xlink="http://www.w3.org/1999/xlink" width="1920" zoomAndPan="magnify" viewBox="0 0 1440 899.99999" height="1200" preserveAspectRatio="xMidYMid meet" version="1.0"><path fill="#fefefe" d="M 1352.738281 323.878906 C 1352.214844 326.453125 1352.214844 326.453125 1351.414062 329.1875 C 1345.597656 332.445312 1338.15625 333.53125 1331.75 335.277344 L 1327.828125 336.34375 L 1324.875 337.148438 L 1328.730469 337.25 C 1333.445312 337.375 1338.15625 337.503906 1342.871094 337.640625 C 1344.910156 337.699219 1346.953125 337.753906 1348.992188 337.808594 C 1351.925781 337.886719 1354.855469 337.96875 1357.789062 338.054688 L 1360.5625 338.121094 C 1367.03125 338.324219 1367.03125 338.324219 1369.988281 339.800781 C 1372.054688 349.101562 1371.847656 359.53125 1371.316406 368.996094 L 1369.988281 370.324219 C 1367.777344 370.375 1365.566406 370.378906 1363.355469 370.324219 L 1362.625 367.851562 L 1361.613281 364.601562 L 1360.632812 361.382812 C 1359.300781 358.207031 1358.015625 356.589844 1355.394531 354.398438 C 1351.007812 352.207031 1346.113281 352.941406 1341.296875 352.988281 L 1330.183594 353.074219 L 1330.183594 383.59375 L 1346.105469 383.59375 L 1350.085938 370.324219 L 1358.046875 370.324219 C 1358.078125 375.96875 1358.105469 381.613281 1358.121094 387.257812 C 1358.125 389.179688 1358.136719 391.101562 1358.144531 393.023438 C 1358.160156 395.78125 1358.171875 398.539062 1358.175781 401.296875 L 1358.199219 406.328125 L 1358.046875 410.132812 L 1356.71875 411.460938 C 1354.507812 411.511719 1352.296875 411.515625 1350.085938 411.460938 L 1346.105469 399.515625 L 1330.183594 396.863281 L 1330.183594 432.691406 L 1343.699219 432.277344 L 1347.925781 432.175781 C 1353.234375 431.96875 1357.242188 431.730469 1362.121094 429.503906 C 1365.328125 426.847656 1366.863281 424.515625 1368.660156 420.75 C 1369.621094 417.675781 1370.519531 414.582031 1371.316406 411.460938 L 1380.601562 411.460938 C 1379.9375 422.746094 1378.132812 433.683594 1375.296875 444.636719 L 1373.96875 445.960938 C 1371.007812 446.113281 1368.039062 446.175781 1365.074219 446.195312 L 1362.253906 446.222656 C 1359.164062 446.25 1356.070312 446.265625 1352.976562 446.277344 L 1349.777344 446.296875 C 1344.183594 446.320312 1338.589844 446.339844 1332.996094 446.355469 C 1327.226562 446.367188 1321.457031 446.414062 1315.691406 446.464844 C 1311.25 446.503906 1306.804688 446.511719 1302.363281 446.515625 C 1300.238281 446.523438 1298.113281 446.539062 1295.988281 446.5625 C 1293.003906 446.597656 1290.019531 446.59375 1287.035156 446.585938 L 1281.894531 446.609375 C 1275.921875 445.800781 1272.8125 443.984375 1267.820312 440.65625 C 1265.890625 438.269531 1265.890625 438.269531 1264.828125 435.828125 L 1263.609375 433.03125 C 1261.277344 426.667969 1259.457031 420.164062 1257.707031 413.621094 C 1256.816406 410.566406 1255.90625 407.707031 1254.550781 404.824219 C 1250.050781 401.015625 1247.257812 400.710938 1241.28125 399.515625 L 1242.609375 432.691406 L 1253.226562 436.671875 C 1253.28125 439.328125 1253.277344 441.980469 1253.226562 444.636719 L 1251.898438 445.960938 C 1249.332031 446.078125 1246.765625 446.128906 1244.195312 446.113281 L 1239.203125 446.113281 L 1233.773438 446.09375 L 1228.246094 446.085938 C 1223.386719 446.082031 1218.53125 446.070312 1213.671875 446.054688 C 1208.71875 446.042969 1203.765625 446.03125 1198.808594 446.027344 C 1189.085938 446.011719 1179.359375 445.992188 1169.632812 445.960938 C 1168.804688 442.894531 1168.804688 442.894531 1168.304688 439.328125 L 1170.960938 435.347656 C 1173.777344 434.433594 1173.777344 434.433594 1176.265625 434.019531 C 1175.351562 428.828125 1173.902344 423.992188 1172.203125 419.007812 L 1169.632812 411.460938 L 1139.113281 411.460938 L 1134.96875 425.457031 C 1133.589844 430.109375 1133.589844 430.109375 1133.808594 435.347656 L 1137.707031 435.265625 L 1141.769531 435.347656 L 1143.09375 436.671875 C 1143.261719 440.65625 1143.261719 440.65625 1143.09375 444.636719 L 1141.769531 445.960938 C 1139.503906 446.09375 1137.230469 446.132812 1134.960938 446.136719 L 1130.558594 446.148438 L 1125.769531 446.140625 L 1120.886719 446.144531 C 1117.46875 446.144531 1114.050781 446.140625 1110.636719 446.136719 C 1105.390625 446.128906 1100.144531 446.136719 1094.902344 446.144531 C 1091.589844 446.144531 1088.277344 446.140625 1084.964844 446.140625 L 1080.183594 446.148438 L 1075.769531 446.132812 L 1071.871094 446.128906 C 1068.789062 445.960938 1068.789062 445.960938 1066.136719 444.636719 L 1066.136719 436.671875 L 1075.425781 432.691406 L 1075.425781 370.324219 L 1066.136719 395.535156 C 1063.726562 401.890625 1061.300781 408.238281 1058.851562 414.574219 C 1057.820312 417.242188 1056.792969 419.910156 1055.773438 422.582031 L 1053.761719 427.785156 L 1051.980469 432.394531 C 1047.417969 443.453125 1047.417969 443.453125 1044.90625 445.960938 C 1040.425781 445.816406 1040.425781 445.816406 1035.621094 444.636719 C 1033.34375 441.710938 1033.34375 441.710938 1031.722656 437.667969 L 1029.773438 432.941406 C 1029.0625 431.089844 1028.359375 429.238281 1027.660156 427.382812 L 1025.128906 420.832031 C 1023.3125 416.089844 1021.515625 411.34375 1019.734375 406.585938 C 1016.558594 398.171875 1013.136719 389.863281 1009.671875 381.558594 C 1008.121094 377.828125 1006.597656 374.082031 1005.101562 370.324219 C 1005.070312 378.777344 1005.042969 387.234375 1005.027344 395.691406 C 1005.023438 398.570312 1005.011719 401.445312 1005.003906 404.324219 C 1004.984375 408.457031 1004.976562 412.585938 1004.972656 416.714844 L 1004.953125 420.632812 L 1004.953125 424.253906 L 1004.941406 427.453125 C 1004.9375 430.144531 1004.9375 430.144531 1006.429688 432.691406 C 1008.925781 433.890625 1008.925781 433.890625 1011.820312 434.847656 C 1012.792969 435.195312 1013.765625 435.539062 1014.769531 435.898438 L 1017.042969 436.671875 C 1017.210938 439.824219 1017.210938 439.824219 1017.042969 443.308594 L 1014.390625 445.960938 C 1010.820312 446.285156 1010.820312 446.285156 1006.339844 446.269531 L 1001.484375 446.261719 L 996.394531 446.210938 L 991.285156 446.210938 C 982.128906 446.164062 982.128906 446.164062 978.5625 445.960938 L 977.238281 444.636719 C 977.183594 441.980469 977.179688 439.328125 977.238281 436.671875 L 981.136719 434.765625 C 984.941406 433.085938 984.941406 433.085938 986.527344 431.367188 C 986.691406 428.839844 986.761719 426.3125 986.796875 423.785156 L 986.878906 418.875 L 986.945312 413.527344 L 987.027344 408.089844 C 987.101562 403.308594 987.167969 398.53125 987.230469 393.75 C 987.300781 388.875 987.371094 384 987.445312 379.125 C 987.589844 369.558594 987.722656 359.988281 987.851562 350.417969 L 977.238281 347.765625 C 977.179688 345.109375 977.183594 342.457031 977.238281 339.800781 L 978.566406 338.476562 C 981.507812 338.359375 984.457031 338.332031 987.402344 338.34375 L 990.074219 338.351562 C 992.898438 338.359375 995.726562 338.375 998.550781 338.390625 C 1000.460938 338.398438 1002.375 338.40625 1004.285156 338.410156 C 1008.980469 338.425781 1013.675781 338.445312 1018.371094 338.476562 C 1022.714844 346.949219 1026.929688 355.300781 1030.144531 364.269531 C 1030.792969 366.054688 1031.445312 367.84375 1032.09375 369.628906 L 1033.136719 372.503906 C 1034.445312 376.027344 1035.785156 379.542969 1037.152344 383.042969 L 1038.632812 386.863281 C 1039.59375 389.347656 1040.5625 391.835938 1041.539062 394.316406 L 1042.863281 397.761719 C 1043.257812 398.773438 1043.652344 399.78125 1044.058594 400.824219 C 1044.90625 403.5 1044.90625 403.5 1044.90625 407.480469 L 1047.5625 407.480469 L 1048.152344 405.324219 C 1051.027344 395.273438 1054.707031 385.558594 1058.433594 375.800781 C 1059.5 372.976562 1060.558594 370.144531 1061.601562 367.3125 C 1071.183594 341.390625 1071.183594 341.390625 1074.097656 338.476562 C 1076.945312 338.359375 1079.796875 338.332031 1082.644531 338.34375 L 1087.890625 338.359375 L 1093.421875 338.394531 C 1095.269531 338.398438 1097.117188 338.40625 1098.964844 338.410156 C 1103.5 338.425781 1108.039062 338.449219 1112.578125 338.476562 L 1112.578125 347.765625 L 1108.015625 348.925781 L 1103.289062 350.417969 C 1101.496094 354.003906 1101.804688 356.789062 1101.8125 360.804688 L 1101.8125 365.714844 L 1101.832031 371.039062 L 1101.839844 376.472656 C 1101.84375 381.242188 1101.855469 386.011719 1101.871094 390.777344 C 1101.882812 395.644531 1101.890625 400.511719 1101.898438 405.375 C 1101.910156 414.921875 1101.933594 424.472656 1101.960938 434.019531 C 1105.597656 434.199219 1108.972656 434.355469 1112.578125 434.019531 C 1115.371094 432.148438 1116.246094 430.632812 1117.792969 427.699219 L 1118.847656 425.058594 L 1120.074219 422.007812 L 1121.367188 418.675781 L 1122.753906 415.160156 C 1127.019531 404.195312 1130.835938 393.082031 1134.640625 381.949219 C 1137.945312 372.269531 1141.398438 362.644531 1145.003906 353.074219 L 1146.328125 349.515625 L 1147.566406 346.273438 L 1148.644531 343.441406 C 1149.730469 341.128906 1149.730469 341.128906 1152.382812 338.476562 C 1155.835938 338.214844 1155.835938 338.214844 1159.847656 338.308594 L 1163.878906 338.382812 L 1166.980469 338.476562 C 1171.371094 348.042969 1175.257812 357.78125 1179.085938 367.585938 L 1181 372.464844 C 1184.238281 380.730469 1187.4375 389.007812 1190.597656 397.304688 L 1192.382812 401.984375 C 1193.496094 404.90625 1194.605469 407.832031 1195.707031 410.757812 C 1198.578125 418.304688 1201.496094 425.648438 1205.457031 432.691406 C 1208.742188 434.324219 1208.742188 434.324219 1212.09375 434.019531 L 1216.074219 432.691406 L 1217.398438 350.417969 L 1208.113281 349.089844 L 1205.457031 346.4375 C 1205.957031 342.289062 1205.957031 342.289062 1206.785156 338.476562 C 1213.320312 338.410156 1219.855469 338.359375 1226.390625 338.328125 C 1228.605469 338.316406 1230.824219 338.296875 1233.042969 338.277344 C 1261.90625 337.980469 1261.90625 337.980469 1272.996094 342.804688 C 1278.046875 346.339844 1282.859375 349.777344 1285.613281 355.488281 C 1287.675781 363.113281 1287.519531 371.242188 1285.566406 378.871094 C 1283.796875 383.035156 1281.957031 385.570312 1278.371094 388.363281 C 1275.816406 390.003906 1273.183594 391.507812 1270.472656 392.882812 L 1274.121094 395.453125 C 1278.457031 399.097656 1280.402344 402.792969 1282.5 408 C 1284.371094 413.230469 1286.144531 418.5 1287.816406 423.804688 C 1288.90625 426.964844 1290.003906 429.8125 1291.703125 432.691406 C 1295.339844 434.511719 1298.296875 434.1875 1302.320312 434.019531 L 1304.972656 432.691406 L 1306.300781 350.417969 L 1297.011719 347.765625 L 1297.011719 339.800781 C 1302.292969 338.042969 1307.425781 338.382812 1312.933594 338.476562 L 1313.230469 335.433594 L 1314.261719 331.839844 C 1324.933594 321.566406 1339.101562 323.070312 1352.738281 323.878906 M 1241.28125 350.417969 L 1241.28125 387.574219 C 1249.972656 387.832031 1249.972656 387.832031 1257.207031 384.921875 C 1260.246094 382.542969 1260.246094 382.542969 1262.511719 379.613281 C 1264.464844 373.566406 1264.5625 367.304688 1263.839844 361.035156 C 1261.765625 356.367188 1261.765625 356.367188 1258.53125 353.074219 C 1252.433594 349.527344 1252.433594 349.527344 1241.28125 350.417969 M 1152.382812 366.34375 L 1143.09375 394.210938 L 1145.75 396.863281 C 1149.898438 397.1875 1149.898438 397.1875 1154.539062 397.027344 L 1159.320312 396.957031 L 1163 396.863281 C 1162.234375 389.5 1160.316406 383.25 1157.609375 376.378906 L 1156.476562 373.4375 C 1155.5625 371.070312 1154.640625 368.703125 1153.710938 366.34375 Z M 105.488281 326.53125 C 110.570312 328.601562 114.484375 331.40625 118.191406 335.441406 C 121.628906 339.941406 123.261719 343.429688 124.066406 349.089844 C 124.605469 359.289062 124.058594 368.835938 122.019531 378.824219 C 120.671875 386.464844 120.675781 393.175781 122.988281 400.59375 C 125.59375 405.179688 128.039062 408.011719 132.027344 411.460938 C 136.351562 413.261719 136.351562 413.261719 141.167969 414.347656 L 146.5625 415.75 L 149.386719 416.457031 C 166.078125 420.671875 182.066406 425.328125 197.042969 434.019531 L 199.449219 435.40625 C 229.804688 453.261719 261.179688 479.90625 278.78125 510.726562 C 283.289062 519.417969 283.289062 519.417969 283.289062 524.253906 C 272.199219 524.785156 261.925781 524.167969 251.445312 520.273438 C 249.570312 519.132812 247.699219 517.980469 245.835938 516.820312 C 241.351562 514.261719 238.0625 513.175781 232.894531 513.085938 C 230.589844 513.15625 228.285156 513.257812 225.984375 513.390625 C 214.625 513.734375 204.269531 512.984375 193.0625 510.984375 L 194.367188 513.789062 C 199.085938 524.425781 201.691406 534.832031 203.84375 546.234375 C 204.46875 549.527344 205.109375 552.820312 205.761719 556.105469 L 206.582031 560.457031 C 207.40625 564.050781 207.40625 564.050781 209.519531 566.386719 C 211.480469 567.921875 213.546875 569.320312 215.621094 570.699219 L 214.292969 573.355469 L 194.390625 572.027344 L 194.390625 569.375 L 201.023438 568.046875 C 199.972656 562.972656 198.910156 557.898438 197.839844 552.828125 C 197.304688 550.269531 196.773438 547.707031 196.242188 545.148438 C 193.476562 529.417969 193.476562 529.417969 186.371094 515.457031 L 183.527344 512.894531 L 180.648438 510.234375 L 178.46875 508.332031 L 179.765625 511.820312 C 184.722656 528.207031 180.023438 548.871094 177.140625 565.390625 L 175.8125 569.375 C 172.363281 571.652344 169.355469 573.175781 165.210938 573.667969 C 162.375 573.746094 159.574219 573.703125 156.738281 573.605469 L 153.78125 573.546875 C 151.394531 573.5 149.007812 573.433594 146.621094 573.355469 L 146.621094 569.375 C 149.644531 567.578125 151.667969 566.734375 155.210938 566.554688 L 158.648438 566.71875 C 162.035156 566.941406 162.035156 566.941406 165.199219 566.71875 L 169.179688 564.066406 C 173.886719 549.785156 175.4375 532.582031 174.488281 517.621094 C 173.320312 512.746094 171.796875 508.621094 169.179688 504.351562 L 166.523438 509.660156 C 153.316406 496.957031 153.316406 496.957031 149.277344 489.753906 L 149.277344 487.097656 L 146.921875 486.027344 C 140.558594 482.621094 135.683594 477.417969 131.765625 471.382812 C 129.492188 467.582031 127.277344 463.75 125.117188 459.882812 C 121.707031 453.863281 118.101562 448.464844 113.78125 443.058594 C 105.617188 432.566406 100.636719 420.394531 97.527344 407.480469 C 96.664062 396.460938 96.914062 386.347656 100.601562 375.871094 C 102.109375 371.0625 102.113281 367.375 101.507812 362.363281 C 99.796875 358.878906 99.796875 358.878906 96.203125 357.054688 C 90.730469 355.25 85.882812 355.425781 80.253906 356.46875 C 68.097656 359.773438 55.777344 365.625 46.78125 374.636719 L 44.453125 376.957031 L 41.800781 376.957031 L 40.804688 379.113281 C 39.148438 382.265625 39.148438 382.265625 36.492188 386.164062 C 34.175781 389.707031 32.585938 392.894531 31.183594 396.863281 C 30.398438 394.601562 30.398438 394.601562 29.859375 391.554688 C 31.472656 384.585938 34.667969 378.378906 39.230469 372.894531 C 45.242188 366.492188 52.179688 361.167969 59.050781 355.726562 C 60.632812 354.378906 62.207031 353.023438 63.777344 351.664062 L 67.011719 349.089844 L 69.664062 349.089844 L 70.738281 346.808594 C 74.136719 340.296875 78.335938 334.085938 84.453125 329.886719 C 91.242188 326.566406 98.003906 325.015625 105.488281 326.53125 M 439.96875 336.328125 C 447.925781 338.339844 455.230469 341.492188 461.667969 346.601562 C 469.179688 354.050781 474.980469 363.074219 478.253906 373.144531 C 481.199219 386.03125 481.066406 399.9375 477.675781 412.703125 C 474.648438 421.199219 470.167969 427.71875 463.742188 434.019531 C 456.027344 440.5625 447.089844 445.128906 437.203125 447.289062 C 423.71875 448.726562 410.96875 447.648438 398.207031 442.882812 C 389.707031 438.925781 383.855469 433.355469 378.0625 426.09375 C 376.289062 423.5 374.882812 420.921875 373.515625 418.09375 L 371.945312 414.980469 C 367.492188 404.761719 367.101562 394.53125 367.90625 383.554688 C 369.03125 373.792969 373.492188 365.128906 379.160156 357.222656 C 386.765625 347.949219 394.699219 342.621094 405.886719 338.355469 C 416.589844 334.613281 428.761719 334.273438 439.96875 336.328125 M 409.339844 351.746094 C 404.292969 356.3125 401.972656 360.785156 399.636719 367.171875 C 395.570312 381.605469 395.753906 397.851562 398.972656 412.457031 C 400.964844 418.984375 403.332031 424.980469 408.015625 430.039062 C 412.25 433.300781 416.355469 435.007812 421.640625 435.796875 C 426.667969 436.011719 430.605469 435.335938 435.460938 433.9375 C 440.945312 430.726562 444.378906 427.398438 447.820312 422.078125 C 453.066406 412.175781 453.519531 399.921875 453.128906 388.902344 C 451.90625 376.042969 448.390625 365.441406 441.433594 354.648438 C 437.601562 350.8125 434.425781 349.378906 429.242188 347.765625 C 421.679688 346.800781 415.78125 347.351562 409.339844 351.746094 M 573.871094 338.476562 C 576.476562 338.351562 579.085938 338.320312 581.695312 338.324219 L 586.765625 338.324219 L 592.289062 338.34375 L 597.902344 338.351562 C 602.839844 338.355469 607.777344 338.367188 612.714844 338.382812 C 617.746094 338.394531 622.78125 338.40625 627.8125 338.410156 C 637.695312 338.425781 647.582031 338.445312 657.464844 338.476562 C 659.035156 344.5 659.304688 350.351562 659.621094 356.554688 L 659.828125 360.058594 L 660.003906 363.410156 L 660.167969 366.464844 C 660.117188 368.996094 660.117188 368.996094 658.789062 371.648438 L 650.828125 371.648438 L 650.101562 368.886719 L 649.085938 365.265625 L 648.109375 361.671875 C 647.039062 358.371094 647.039062 358.371094 644.96875 356.042969 C 642.738281 354.109375 642.738281 354.109375 638.886719 353.074219 C 636.632812 352.878906 634.375 352.742188 632.113281 352.652344 L 628.550781 352.5 L 624.042969 352.328125 L 609.695312 351.746094 L 611.023438 383.59375 C 624.417969 383.269531 624.417969 383.269531 630.925781 379.613281 C 632.121094 377.074219 632.121094 377.074219 632.75 374.222656 C 633.683594 371.359375 633.683594 371.359375 634.90625 368.996094 C 639.054688 367.585938 639.054688 367.585938 642.867188 367.667969 L 644.195312 368.996094 C 644.328125 372.132812 644.382812 375.230469 644.371094 378.367188 L 644.375 381.207031 C 644.375 383.195312 644.375 385.179688 644.367188 387.167969 C 644.359375 390.214844 644.367188 393.265625 644.378906 396.3125 C 644.378906 398.238281 644.375 400.164062 644.371094 402.085938 L 644.378906 404.871094 C 644.359375 407.066406 644.296875 409.265625 644.195312 411.460938 L 642.867188 412.789062 C 638.972656 413.117188 638.972656 413.117188 634.90625 412.789062 C 632.253906 408.804688 632.253906 408.804688 630.925781 403.996094 L 629.601562 399.515625 C 623.613281 396.523438 616.371094 397.375 609.695312 396.863281 L 609.695312 432.691406 L 621.640625 432.195312 L 625.332031 432.058594 C 632.398438 431.722656 638.789062 430.929688 645.523438 428.710938 C 648.40625 424.734375 650.101562 421.320312 651.839844 416.792969 C 652.722656 414.53125 653.757812 412.324219 654.808594 410.132812 C 657.546875 408.804688 657.546875 408.804688 660.117188 408.804688 L 662.769531 410.132812 C 663.410156 436.710938 663.410156 436.710938 660.117188 443.308594 C 655.121094 445.832031 651 446.292969 645.441406 446.285156 L 640.628906 446.296875 L 635.464844 446.269531 L 630.152344 446.269531 C 626.449219 446.265625 622.746094 446.253906 619.042969 446.234375 C 614.285156 446.214844 609.53125 446.207031 604.777344 446.210938 C 600.246094 446.210938 595.714844 446.195312 591.183594 446.183594 L 585.988281 446.179688 L 581.226562 446.15625 L 577.007812 446.140625 L 573.871094 445.960938 L 572.542969 444.636719 C 572.296875 440.738281 572.296875 440.738281 572.542969 436.671875 C 575.199219 434.019531 575.199219 434.019531 581.832031 431.367188 L 581.832031 351.746094 L 572.542969 347.765625 C 572.488281 345.109375 572.492188 342.457031 572.542969 339.800781 Z M 573.871094 338.476562 " fill-opacity="1" fill-rule="nonzero"/><path fill="#fefefe" d="M 484.972656 338.476562 C 487.53125 338.34375 490.09375 338.304688 492.65625 338.304688 L 497.628906 338.289062 L 503.050781 338.300781 L 508.570312 338.296875 C 512.425781 338.292969 516.285156 338.296875 520.148438 338.304688 C 525.105469 338.308594 530.0625 338.304688 535.019531 338.296875 C 538.820312 338.292969 542.617188 338.292969 546.417969 338.296875 C 548.246094 338.296875 550.074219 338.296875 551.902344 338.296875 C 554.453125 338.292969 557.003906 338.296875 559.554688 338.304688 L 563.964844 338.308594 L 567.238281 338.476562 L 568.5625 339.800781 C 568.921875 343.503906 568.921875 343.503906 568.5625 347.765625 C 566.753906 350.695312 566.753906 350.695312 564.167969 353.570312 C 559.339844 359.25 555.007812 365.082031 550.816406 371.238281 L 548.945312 373.980469 C 544.230469 380.941406 539.550781 387.929688 534.914062 394.941406 C 531.261719 400.433594 527.550781 405.882812 523.78125 411.292969 C 516.804688 421.210938 516.804688 421.210938 510.183594 431.367188 L 510.183594 432.691406 C 514.355469 432.542969 518.53125 432.371094 522.707031 432.195312 C 523.871094 432.15625 525.035156 432.113281 526.238281 432.070312 C 533.808594 431.734375 541.457031 431.242188 548.660156 428.710938 C 551.945312 425.855469 553.402344 424.453125 555.296875 420.75 C 556.449219 417.289062 557.433594 413.785156 558.25 410.230469 L 559.277344 407.480469 C 563.257812 406.152344 563.257812 406.152344 566.160156 406.734375 L 568.5625 407.480469 C 569.078125 419.640625 568.453125 433.023438 564.582031 444.636719 L 473.03125 444.636719 L 471.703125 436.671875 C 473.570312 434.378906 473.570312 434.378906 476.347656 432.445312 C 482.160156 427.851562 485.464844 422.910156 489.257812 416.601562 C 491.5625 412.855469 494.042969 409.351562 496.664062 405.820312 C 500.910156 400.070312 504.921875 394.203125 508.855469 388.238281 C 513.613281 381.039062 518.554688 373.972656 523.679688 367.03125 C 527.300781 362.039062 530.699219 356.910156 534.066406 351.746094 C 516.253906 350.527344 516.253906 350.527344 499.386719 354.566406 C 496.003906 357.972656 494.867188 361.425781 493.265625 365.929688 L 491.542969 370.671875 L 490.28125 374.304688 L 482.316406 372.976562 C 481.238281 368.410156 480.917969 364.601562 481.394531 359.9375 L 481.753906 356.390625 L 482.152344 352.742188 L 482.519531 349.027344 C 483.214844 342.367188 483.214844 342.367188 483.644531 339.800781 Z M 738.402344 339.800781 L 738.402344 372.976562 L 730.441406 372.976562 L 729.558594 369.390625 C 727.527344 360.871094 727.527344 360.871094 723.195312 353.445312 C 718.105469 350.035156 713.347656 349.203125 707.386719 348.757812 C 702.152344 349.121094 699.089844 350.40625 694.617188 353.074219 L 693.289062 354.398438 C 692.664062 358.566406 692.296875 361.035156 693.289062 365.015625 C 699.203125 371.558594 709.878906 374.265625 717.78125 377.574219 C 728.070312 382.035156 738.785156 387.027344 746.363281 395.535156 C 749.371094 400.296875 750.191406 403.316406 750.757812 408.878906 C 751.007812 415.582031 751.039062 421.761719 748.273438 427.964844 C 744.953125 433.394531 741.183594 437.332031 735.75 440.65625 C 723.066406 447.210938 710.980469 448.421875 696.925781 447.855469 C 687.679688 447.199219 679.496094 445.054688 671.671875 440.027344 C 669.40625 436.671875 669.40625 436.671875 668.972656 433.65625 C 668.832031 429.917969 668.878906 426.230469 668.992188 422.492188 L 669.03125 418.570312 C 669.140625 411.792969 669.140625 411.792969 669.40625 408.804688 L 670.734375 407.480469 C 673.386719 407.425781 676.039062 407.421875 678.695312 407.480469 L 679.667969 410.730469 C 681.496094 416.558594 683.289062 422.105469 686.238281 427.46875 C 689.941406 430.570312 693.210938 432.09375 697.835938 433.441406 C 703.976562 434.484375 709.769531 433.949219 715.847656 432.691406 C 720.246094 430.859375 721.988281 429.316406 724.96875 425.644531 C 726.660156 422.117188 726.660156 422.117188 726.792969 418.179688 C 725.480469 414.203125 725.480469 414.203125 723.164062 412.164062 C 716.636719 407.410156 709.441406 404.488281 701.996094 401.507812 C 680.820312 393.03125 680.820312 393.03125 674.847656 385.890625 C 671.289062 380.714844 668.382812 376.097656 667.761719 369.722656 C 667.503906 360.054688 667.503906 360.054688 669.03125 355.589844 C 671.867188 350.402344 675.480469 346.191406 680.019531 342.457031 C 698.539062 332.597656 718.746094 334.316406 738.402344 339.800781 M 283.382812 338.34375 L 286.582031 338.351562 C 289.964844 338.359375 293.34375 338.375 296.722656 338.390625 C 299.011719 338.398438 301.300781 338.40625 303.589844 338.410156 C 309.207031 338.425781 314.824219 338.445312 320.441406 338.476562 L 320.441406 347.765625 L 312.480469 349.089844 C 313.15625 356.234375 314.371094 361.925781 317.207031 368.582031 C 317.917969 370.289062 318.628906 371.996094 319.335938 373.703125 L 320.503906 376.511719 C 322.96875 382.5625 325.261719 388.679688 327.574219 394.789062 L 329.011719 398.582031 C 330.136719 401.546875 331.261719 404.511719 332.382812 407.480469 C 337 396.34375 341.308594 385.09375 345.320312 373.722656 L 346.5 370.398438 C 348.78125 363.839844 350.710938 357.179688 352.285156 350.417969 L 342.996094 347.765625 L 342.996094 339.800781 C 346.460938 338.070312 349.003906 338.324219 352.875 338.34375 L 357.203125 338.359375 L 361.738281 338.394531 L 366.304688 338.410156 C 370.035156 338.425781 373.765625 338.449219 377.496094 338.476562 L 378.824219 346.4375 C 375.65625 348.949219 373.421875 350.449219 369.535156 351.746094 C 367.710938 355.296875 367.710938 355.296875 366.175781 359.765625 L 365.242188 362.289062 C 364.226562 365.042969 363.234375 367.808594 362.238281 370.570312 C 361.535156 372.484375 360.832031 374.398438 360.128906 376.3125 C 358.304688 381.285156 356.492188 386.257812 354.691406 391.238281 C 352.316406 397.777344 349.933594 404.3125 347.539062 410.847656 C 346.308594 414.21875 345.085938 417.589844 343.867188 420.964844 C 336.742188 440.574219 336.742188 440.574219 333.710938 445.960938 C 330.285156 447.675781 326.960938 447.777344 323.1875 448.113281 L 320.441406 447.289062 C 315.058594 440.886719 312.5 433.230469 309.578125 425.476562 L 306.429688 417.289062 L 304.816406 413.046875 C 302.199219 406.234375 299.558594 399.429688 296.890625 392.632812 L 295.371094 388.753906 C 291.902344 379.90625 288.414062 371.074219 284.617188 362.363281 L 283.320312 359.199219 C 282.136719 356.511719 281.027344 354.125 279.308594 351.746094 C 276.664062 350.394531 274.011719 349.070312 271.347656 347.765625 C 270.1875 343.535156 270.1875 343.535156 270.019531 339.800781 C 274.230469 337.699219 278.761719 338.316406 283.382812 338.34375 M 790.148438 368.996094 C 797.085938 368.863281 804.027344 368.765625 810.964844 368.703125 C 813.320312 368.679688 815.671875 368.640625 818.027344 368.59375 C 841.871094 368.140625 841.871094 368.140625 851.433594 372.867188 C 857.449219 376.460938 862.410156 380.421875 866.242188 386.367188 C 869.9375 393.484375 871.582031 400.035156 871.449219 408.0625 C 870.632812 415.726562 868.023438 422.714844 863.734375 429.109375 C 858.792969 435.117188 853.09375 440.257812 845.878906 443.308594 C 834.691406 446.691406 823.519531 446.261719 811.960938 446.128906 C 809.96875 446.113281 807.976562 446.101562 805.988281 446.09375 C 801.152344 446.0625 796.3125 446.019531 791.476562 445.960938 L 788.824219 439.328125 C 790.480469 437.421875 790.480469 437.421875 792.804688 435.347656 C 794.566406 434.878906 796.335938 434.433594 798.109375 434.019531 C 800.320312 429.597656 799.597656 424.644531 799.566406 419.785156 L 799.5625 416.316406 C 799.554688 412.652344 799.539062 408.988281 799.523438 405.324219 C 799.515625 402.839844 799.507812 400.359375 799.503906 397.878906 C 799.488281 391.789062 799.464844 385.703125 799.4375 379.613281 L 790.148438 376.957031 Z M 821.996094 379.613281 L 820.667969 380.9375 C 820.554688 384.851562 820.511719 388.765625 820.539062 392.679688 L 820.542969 396.246094 C 820.550781 400.019531 820.566406 403.789062 820.585938 407.5625 C 820.59375 410.113281 820.597656 412.664062 820.601562 415.214844 C 820.617188 421.484375 820.640625 427.75 820.667969 434.019531 C 822.785156 434.078125 824.90625 434.121094 827.023438 434.15625 L 830.597656 434.230469 C 834.261719 434.210938 834.261719 434.210938 838.414062 431.863281 C 843.304688 427.4375 846.445312 423.03125 848.53125 416.769531 C 849.589844 403.433594 849.589844 403.433594 846.460938 390.644531 C 844.410156 387.347656 842.230469 385.148438 838.996094 383.011719 C 833.65625 380.394531 827.914062 379.550781 821.996094 379.613281 M 896.300781 368.996094 C 900.722656 368.808594 905.140625 368.941406 909.566406 368.996094 C 915.238281 380.90625 920.269531 392.921875 924.992188 405.242188 C 930.445312 419.980469 930.445312 419.980469 937.433594 434.019531 C 941.574219 435.527344 941.574219 435.527344 945.394531 435.347656 C 946.140625 438.414062 946.140625 438.414062 946.71875 441.980469 L 945.394531 445.960938 C 940.125 445.996094 934.859375 446.019531 929.59375 446.035156 C 927.800781 446.042969 926.007812 446.050781 924.214844 446.0625 C 921.640625 446.078125 919.070312 446.085938 916.496094 446.09375 L 911.800781 446.113281 L 908.242188 445.960938 L 906.914062 444.636719 C 906.859375 442.421875 906.859375 440.210938 906.914062 438 L 913.546875 435.347656 L 910.894531 422.078125 L 889.664062 422.078125 L 885.683594 435.347656 L 893.644531 436.671875 C 894.148438 439.316406 894.589844 441.972656 894.972656 444.636719 L 893.644531 445.960938 C 888.59375 446.296875 883.527344 446.207031 878.46875 446.210938 L 874.144531 446.261719 L 870.015625 446.265625 L 866.210938 446.285156 L 863.128906 445.960938 L 860.472656 443.308594 C 860.652344 440.632812 860.652344 440.632812 861.800781 438 C 864.078125 436.714844 864.078125 436.714844 866.882812 435.710938 C 869.8125 434.445312 869.8125 434.445312 872.414062 432.691406 C 874.84375 429.238281 876.070312 425.558594 877.375 421.5625 L 878.550781 418.28125 C 879.777344 414.828125 880.945312 411.363281 882.117188 407.894531 C 882.925781 405.589844 883.738281 403.285156 884.554688 400.980469 C 887.140625 393.648438 889.679688 386.304688 892.082031 378.910156 L 893.152344 375.628906 L 894.113281 372.644531 C 894.972656 370.324219 894.972656 370.324219 896.300781 368.996094 M 898.953125 392.882812 L 892.320312 411.460938 L 905.585938 411.460938 C 904.75 404.753906 902.753906 399.125 900.28125 392.882812 Z M 888.335938 514.964844 C 891.960938 514.824219 895.578125 514.71875 899.203125 514.632812 L 902.292969 514.5 C 905.246094 514.449219 907.976562 514.503906 910.894531 514.964844 C 914.902344 517.386719 914.902344 517.386719 917.527344 520.273438 C 918.191406 524.339844 918.191406 524.339844 917.527344 528.238281 C 915.539062 530.722656 915.539062 530.722656 913.546875 532.21875 L 916.121094 533.710938 L 918.855469 536.199219 C 920.015625 540.097656 920.015625 540.097656 920.183594 544.160156 C 919.269531 547.144531 919.269531 547.144531 917.527344 549.46875 C 913.996094 551.859375 911.46875 552.210938 907.152344 552.71875 C 905.25 552.835938 903.34375 552.941406 901.441406 553.035156 L 898.511719 553.222656 C 891.347656 553.628906 891.347656 553.628906 888.335938 552.121094 L 888.335938 549.46875 L 892.320312 549.46875 L 892.320312 517.621094 L 888.335938 517.621094 Z M 900.28125 518.949219 L 898.953125 520.273438 C 898.863281 522.070312 898.835938 523.867188 898.871094 525.664062 L 898.953125 530.890625 C 901.34375 531.820312 901.34375 531.820312 904.261719 532.21875 C 907.203125 531.078125 907.203125 531.078125 909.566406 529.5625 C 909.621094 526.46875 909.621094 523.371094 909.566406 520.273438 L 908.242188 518.949219 C 904.261719 518.726562 904.261719 518.726562 900.28125 518.949219 M 900.28125 534.871094 L 898.953125 536.199219 C 898.824219 538.183594 898.78125 540.179688 898.785156 542.167969 L 898.777344 545.445312 L 898.953125 548.140625 L 900.28125 549.46875 C 904.890625 549.125 904.890625 549.125 909.566406 548.140625 L 912.222656 545.488281 C 912.882812 542.226562 912.882812 542.226562 912.222656 538.851562 C 910.078125 536.277344 910.078125 536.277344 906.914062 534.871094 C 903.429688 534.429688 903.429688 534.429688 900.28125 534.871094 M 595.101562 514.964844 C 599.054688 514.503906 601.867188 514.222656 605.714844 514.964844 C 609.164062 517.445312 611.542969 520.554688 614.09375 523.921875 L 616.148438 526.472656 C 619.398438 530.53125 622.5 534.691406 625.621094 538.851562 L 626.945312 518.949219 L 622.964844 517.621094 L 622.964844 514.964844 L 636.234375 514.964844 L 636.234375 517.621094 L 630.925781 518.949219 L 630.925781 552.121094 L 626.945312 552.121094 C 623.933594 549.300781 623.933594 549.300781 620.5625 545.488281 L 618.789062 543.492188 C 614.117188 538.175781 609.839844 532.660156 605.714844 526.910156 L 604.390625 549.46875 L 609.695312 549.46875 L 609.695312 552.121094 L 595.101562 552.121094 L 595.101562 549.46875 L 599.082031 548.140625 L 600.410156 518.949219 L 595.101562 516.292969 Z M 839.242188 512.3125 L 839.242188 549.46875 L 843.222656 549.46875 L 843.222656 552.121094 C 834.433594 553.617188 834.433594 553.617188 829.957031 552.121094 L 826.140625 552.953125 L 821.996094 553.449219 C 818.347656 551.875 818.347656 551.875 815.359375 549.46875 C 813.097656 546.347656 812.710938 544.1875 812.210938 540.34375 C 812.707031 536.199219 812.707031 536.199219 815.027344 531.886719 C 818.015625 528.238281 818.015625 528.238281 820.503906 526.410156 C 824.167969 525.332031 827.484375 525.410156 831.28125 525.582031 L 831.28125 517.621094 L 828.628906 516.292969 L 828.628906 513.640625 C 832.609375 512.3125 832.609375 512.3125 839.242188 512.3125 M 824.648438 529.5625 C 821.5 531.605469 821.5 531.605469 819.339844 534.871094 C 818.566406 538.851562 818.566406 538.851562 819.339844 542.832031 C 820.628906 546.101562 820.628906 546.101562 823.320312 548.140625 C 827.46875 548.585938 827.46875 548.585938 831.28125 548.140625 C 832.925781 544.851562 832.832031 542.519531 832.859375 538.851562 L 832.914062 535.285156 L 832.609375 532.21875 L 829.957031 529.5625 Z M 546.007812 512.3125 L 546.007812 549.46875 L 549.988281 549.46875 L 549.988281 552.121094 C 544.953125 553.152344 541.636719 553.351562 536.71875 552.121094 L 532.824219 552.953125 L 528.757812 553.449219 C 525.027344 551.789062 525.027344 551.789062 522.125 549.46875 C 520.320312 544.0625 519.945312 539.191406 520.796875 533.542969 C 523.449219 529.5625 523.449219 529.5625 527.429688 526.910156 C 531.0625 526.019531 534.28125 525.773438 538.046875 525.582031 L 539.375 516.292969 L 535.394531 516.292969 L 535.394531 513.640625 C 539.375 512.3125 539.375 512.3125 546.007812 512.3125 M 531.414062 529.5625 L 528.925781 530.808594 C 526.929688 534.464844 527.007812 537.476562 527.03125 541.589844 C 527.3125 544.585938 527.3125 544.585938 530.085938 548.140625 C 534.121094 548.582031 534.121094 548.582031 538.046875 548.140625 L 539.375 546.8125 C 539.46875 544.132812 539.484375 541.449219 539.457031 538.769531 L 539.417969 534.328125 L 539.375 530.890625 C 535.589844 529.871094 535.589844 529.871094 531.414062 529.5625 M 450.472656 518.949219 L 453.128906 520.273438 L 453.128906 526.910156 L 461.089844 526.910156 L 459.761719 530.890625 L 453.128906 530.890625 L 454.453125 548.140625 L 461.089844 548.140625 L 459.761719 552.121094 C 456.113281 553.035156 456.113281 553.035156 451.800781 553.449219 C 448.898438 552.082031 448.898438 552.082031 446.492188 549.46875 C 445.976562 545.015625 445.976562 545.015625 446.160156 539.929688 L 446.308594 534.8125 L 446.492188 530.890625 L 442.761719 532.300781 L 438.53125 533.542969 L 434.550781 532.21875 L 433.222656 533.542969 C 432.917969 536.222656 432.671875 538.902344 432.480469 541.589844 L 432.140625 546.03125 L 431.898438 549.46875 L 437.203125 550.796875 L 433.222656 553.449219 C 429.589844 553.410156 426.214844 552.714844 422.609375 552.121094 L 422.609375 549.46875 L 425.261719 549.46875 C 425.074219 546.453125 424.882812 543.441406 424.683594 540.429688 L 424.355469 535.34375 C 424.105469 530.902344 424.105469 530.902344 422.609375 526.910156 C 426.425781 526.078125 426.425781 526.078125 430.570312 525.582031 L 433.222656 528.238281 L 436.292969 526.910156 C 439.859375 525.582031 439.859375 525.582031 443.839844 525.582031 C 447.40625 522.347656 447.40625 522.347656 450.472656 518.949219 M 1044.90625 512.3125 L 1051.542969 512.3125 L 1051.542969 549.46875 L 1055.523438 549.46875 L 1055.523438 552.121094 C 1046.730469 553.617188 1046.730469 553.617188 1042.253906 552.121094 L 1038.4375 552.953125 C 1034.292969 553.449219 1034.292969 553.449219 1030.644531 552.121094 C 1027.660156 549.46875 1027.660156 549.46875 1025.75 545.15625 C 1025.003906 540.179688 1025.003906 540.179688 1025.667969 535.285156 C 1027.660156 530.890625 1027.660156 530.890625 1031.226562 527.574219 C 1035.621094 525.582031 1035.621094 525.582031 1040.761719 525.914062 L 1044.90625 526.910156 L 1044.90625 516.292969 L 1040.925781 514.964844 Z M 1036.945312 529.5625 L 1032.964844 532.21875 C 1031.621094 536.644531 1031.621094 536.644531 1031.640625 541.507812 C 1032.789062 545.488281 1032.789062 545.488281 1035.621094 548.140625 C 1039.710938 548.804688 1039.710938 548.804688 1043.582031 548.140625 L 1044.90625 546.8125 C 1045.003906 544.132812 1045.019531 541.449219 1044.992188 538.769531 L 1044.953125 534.328125 L 1044.90625 530.890625 C 1041.117188 529.980469 1041.117188 529.980469 1036.945312 529.5625 M 361.574219 514.964844 C 365.417969 514.789062 369.253906 514.65625 373.101562 514.550781 L 376.382812 514.382812 C 379.535156 514.320312 382.359375 514.378906 385.457031 514.964844 C 389.5 518.015625 389.5 518.015625 392.089844 521.601562 C 392.839844 526.328125 392.839844 526.328125 392.089844 530.890625 C 389.6875 534.042969 389.6875 534.042969 386.785156 536.199219 C 382.175781 537.734375 378.34375 537.617188 373.515625 537.523438 L 374.84375 548.140625 L 378.824219 549.46875 L 378.824219 552.121094 L 361.574219 552.121094 L 362.902344 549.46875 L 366.882812 549.46875 C 366.773438 544.460938 366.625 539.460938 366.46875 534.457031 L 366.375 530.144531 L 366.234375 526.011719 L 366.128906 522.199219 C 365.816406 518.847656 365.816406 518.847656 363.523438 516.515625 Z M 373.515625 518.949219 L 373.515625 533.542969 C 377.332031 533.875 377.332031 533.875 381.476562 533.542969 L 384.046875 532.136719 C 384.511719 531.285156 384.976562 530.4375 385.457031 529.5625 C 385.355469 524.765625 385.355469 524.765625 384.128906 520.273438 C 380.535156 518.476562 377.484375 518.859375 373.515625 518.949219 M 1112.835938 514.515625 C 1117.21875 514.472656 1121.488281 514.535156 1125.847656 514.964844 L 1127.171875 516.292969 C 1127.226562 518.949219 1127.230469 521.601562 1127.171875 524.253906 L 1123.191406 524.253906 L 1120.789062 521.519531 L 1117.886719 518.949219 C 1113.640625 519.136719 1113.640625 519.136719 1109.921875 520.273438 C 1110.082031 523.496094 1110.082031 523.496094 1111.25 526.910156 C 1114.148438 528.957031 1114.148438 528.957031 1117.71875 530.308594 C 1121.53125 531.917969 1124.085938 533.082031 1126.929688 536.109375 C 1128.5 538.851562 1128.5 538.851562 1128.582031 543.496094 L 1127.171875 548.140625 C 1123.691406 551.375 1123.691406 551.375 1119.210938 553.449219 C 1112.40625 554.191406 1107.03125 552.882812 1100.636719 550.796875 L 1101.960938 541.507812 L 1104.617188 541.507812 L 1105.777344 544.078125 L 1107.269531 546.8125 C 1111.195312 548.777344 1114.890625 548.222656 1119.210938 548.140625 L 1120.539062 541.507812 L 1117.777344 539.859375 L 1110.5625 535.546875 C 1108.105469 534.042969 1105.679688 532.492188 1103.289062 530.890625 C 1101.960938 526.496094 1101.960938 526.496094 1101.960938 521.601562 C 1104.789062 516.492188 1107.046875 515.132812 1112.835938 514.515625 M 1168.058594 526.246094 C 1172.289062 527.171875 1172.289062 527.171875 1176.433594 525.996094 L 1180.246094 525.582031 C 1183.085938 527.65625 1183.085938 527.65625 1185.554688 530.890625 C 1186.269531 535.136719 1186.269531 535.136719 1186.382812 539.765625 C 1186.464844 542.558594 1186.609375 545.355469 1186.882812 548.140625 L 1189.535156 549.46875 L 1189.535156 552.121094 C 1184.632812 553.757812 1181.300781 552.976562 1176.265625 552.121094 L 1177.59375 549.46875 L 1180.246094 549.46875 L 1178.921875 530.890625 L 1170.960938 532.21875 L 1169.632812 549.46875 L 1172.285156 549.46875 L 1172.285156 552.121094 L 1159.015625 552.121094 L 1161.671875 548.140625 C 1162.28125 543.898438 1162.28125 543.898438 1162.5 539.269531 L 1162.800781 534.523438 L 1163 530.890625 L 1159.015625 529.5625 L 1160.34375 526.910156 C 1164.324219 525.582031 1164.324219 525.582031 1168.058594 526.246094 M 1289.050781 526.910156 C 1291.308594 529.78125 1291.308594 529.78125 1293.03125 533.542969 C 1293.417969 537.675781 1293.417969 537.675781 1293.28125 541.921875 L 1293.167969 546.21875 L 1293.03125 549.46875 L 1298.339844 550.796875 L 1294.355469 553.449219 C 1291.257812 553.03125 1288.160156 552.589844 1285.070312 552.121094 L 1280.09375 552.871094 L 1275.78125 553.449219 L 1271.800781 550.796875 C 1271.550781 546.648438 1271.550781 546.648438 1271.800781 542.832031 C 1273.734375 541.945312 1275.667969 541.058594 1277.605469 540.179688 L 1280.871094 538.6875 C 1283.742188 537.523438 1283.742188 537.523438 1286.394531 537.523438 L 1286.394531 530.890625 C 1283.191406 530.558594 1283.191406 530.558594 1279.761719 530.890625 L 1277.109375 534.871094 L 1273.128906 534.871094 C 1273.460938 531.71875 1273.460938 531.71875 1274.453125 528.238281 C 1278.984375 524.402344 1283.617188 525.429688 1289.050781 526.910156 M 1278.433594 542.832031 L 1278.433594 549.46875 C 1280.65625 549.070312 1282.867188 548.625 1285.070312 548.140625 L 1286.394531 546.8125 C 1286.449219 544.605469 1286.453125 542.390625 1286.394531 540.179688 C 1283.632812 540.179688 1280.957031 541.796875 1278.433594 542.832031 M 1070.945312 525.75 C 1075.425781 526.910156 1075.425781 526.910156 1077.679688 528.375 C 1079.40625 530.890625 1079.40625 530.890625 1079.792969 535.34375 L 1079.652344 540.425781 L 1079.546875 545.542969 L 1079.40625 549.46875 L 1083.386719 549.46875 L 1083.386719 552.121094 C 1077.394531 553.621094 1077.394531 553.621094 1074.265625 552.785156 C 1071.144531 551.863281 1071.144531 551.863281 1066.71875 552.871094 L 1062.15625 553.449219 L 1058.175781 550.796875 C 1057.929688 546.648438 1057.929688 546.648438 1058.175781 542.832031 C 1059.859375 541.941406 1061.542969 541.054688 1063.234375 540.179688 L 1066.082031 538.6875 C 1068.789062 537.523438 1068.789062 537.523438 1072.773438 537.523438 L 1071.445312 530.890625 L 1066.136719 530.890625 C 1063.152344 533.433594 1063.152344 533.433594 1060.828125 536.199219 L 1059.503906 529.5625 C 1063.664062 526.410156 1065.644531 525.566406 1070.945312 525.75 M 1064.808594 542.832031 L 1066.136719 549.46875 L 1072.773438 548.140625 L 1072.773438 540.179688 C 1070.007812 540.179688 1067.335938 541.796875 1064.808594 542.832031 M 859.3125 525.664062 L 863.128906 526.910156 C 865.339844 529.78125 865.339844 529.78125 867.109375 533.542969 C 867.496094 537.675781 867.496094 537.675781 867.359375 541.921875 L 867.246094 546.21875 L 867.109375 549.46875 L 872.414062 550.796875 L 868.433594 553.449219 C 865.335938 553.039062 862.238281 552.59375 859.148438 552.121094 L 854.917969 552.871094 L 851.1875 553.449219 C 848.035156 552.207031 848.035156 552.207031 845.878906 550.796875 L 845.878906 542.832031 C 847.8125 541.945312 849.746094 541.058594 851.683594 540.179688 L 854.949219 538.6875 C 857.820312 537.523438 857.820312 537.523438 860.472656 537.523438 L 859.148438 530.890625 L 853.839844 530.890625 L 851.1875 534.871094 L 847.207031 534.871094 C 847.453125 531.71875 847.453125 531.71875 848.53125 528.238281 C 852.34375 525.839844 854.816406 525.574219 859.3125 525.664062 M 855.167969 541.507812 L 852.511719 544.160156 C 852.9375 546.957031 852.9375 546.957031 853.839844 549.46875 L 859.148438 548.140625 L 860.472656 541.507812 Z M 940.085938 526.910156 C 942.34375 529.078125 942.34375 529.078125 944.066406 532.21875 C 944.453125 536.507812 944.453125 536.507812 944.316406 541.175781 L 944.207031 545.882812 L 944.066406 549.46875 L 948.046875 549.46875 L 948.046875 552.121094 C 943.027344 553.148438 939.679688 553.386719 934.777344 552.121094 L 931.460938 552.871094 C 928.144531 553.449219 928.144531 553.449219 925.160156 552.539062 C 922.835938 550.796875 922.835938 550.796875 921.507812 548.308594 L 921.507812 545.488281 C 923.417969 542.667969 923.417969 542.667969 926.816406 540.179688 C 930.347656 538.980469 933.761719 538.257812 937.433594 537.523438 L 934.777344 530.890625 L 930.796875 530.890625 L 928.144531 534.871094 L 924.164062 534.871094 C 924.496094 531.71875 924.496094 531.71875 925.488281 528.238281 C 930.023438 524.402344 934.636719 525.523438 940.085938 526.910156 M 929.46875 542.832031 L 928.144531 546.8125 L 929.46875 549.46875 C 931.691406 549.070312 933.902344 548.625 936.105469 548.140625 L 937.433594 546.8125 C 937.484375 544.605469 937.488281 542.390625 937.433594 540.179688 C 934.515625 540.179688 932.042969 541.609375 929.46875 542.832031 M 1015.714844 526.910156 C 1018.371094 529.5625 1018.371094 529.5625 1019.195312 531.90625 C 1019.800781 535.484375 1019.824219 538.875 1019.78125 542.5 L 1019.742188 546.460938 L 1019.695312 549.46875 L 1023.675781 550.796875 L 1019.695312 553.449219 C 1017.039062 553.023438 1014.386719 552.582031 1011.734375 552.121094 L 1006.84375 552.871094 L 1002.449219 553.449219 L 998.46875 550.796875 L 999.792969 541.507812 L 1013.0625 537.523438 L 1010.410156 530.890625 L 1006.429688 530.890625 L 1003.773438 534.871094 L 999.792969 534.871094 C 1000.042969 531.71875 1000.042969 531.71875 1001.121094 528.238281 C 1006.171875 525.058594 1010.066406 525.402344 1015.714844 526.910156 M 1007.753906 541.507812 L 1005.101562 544.160156 C 1005.523438 546.957031 1005.523438 546.957031 1006.429688 549.46875 L 1013.0625 546.8125 L 1013.0625 541.507812 Z M 1149.730469 526.910156 C 1152.300781 529.398438 1152.300781 529.398438 1153.710938 533.542969 C 1154.011719 538.429688 1153.941406 543.253906 1153.710938 548.140625 L 1157.691406 549.46875 L 1157.691406 552.121094 C 1152.652344 553.152344 1149.339844 553.351562 1144.421875 552.121094 L 1140.441406 552.953125 L 1136.460938 553.449219 C 1133.308594 551.542969 1133.308594 551.542969 1131.152344 549.46875 C 1131.652344 546.316406 1131.652344 546.316406 1132.480469 542.832031 C 1135.132812 540.179688 1135.132812 540.179688 1138.003906 539.339844 L 1141.269531 538.6875 L 1144.558594 538.011719 L 1147.074219 537.523438 L 1144.421875 530.890625 L 1140.441406 530.890625 L 1137.789062 534.871094 L 1133.808594 534.871094 C 1134.140625 531.71875 1134.140625 531.71875 1135.132812 528.238281 C 1139.664062 524.402344 1144.296875 525.429688 1149.730469 526.910156 M 1139.113281 542.832031 C 1137.9375 545.542969 1137.9375 545.542969 1137.789062 548.140625 C 1140.238281 549.058594 1140.238281 549.058594 1143.09375 549.46875 L 1147.074219 546.8125 C 1147.40625 543.386719 1147.40625 543.386719 1147.074219 540.179688 C 1144.085938 540.179688 1141.726562 541.527344 1139.113281 542.832031 M 651.328125 525.75 C 656.136719 526.910156 656.136719 526.910156 660.035156 529.5625 C 662.769531 533.542969 662.769531 533.542969 663.363281 536.40625 C 663.621094 541.542969 663.097656 544.832031 660.78125 549.46875 C 657.550781 552.054688 656.238281 552.730469 652.324219 553.449219 C 648.53125 553.660156 646.144531 553.265625 642.371094 552.289062 C 638.886719 549.46875 638.886719 549.46875 637.714844 546.773438 C 636.464844 542.015625 635.996094 538.523438 637.144531 533.710938 C 638.855469 530.945312 640.332031 528.941406 642.867188 526.910156 C 646.847656 525.582031 646.847656 525.582031 651.328125 525.75 M 646.847656 529.5625 C 644.183594 532.191406 644.183594 532.191406 642.867188 536.199219 C 642.738281 540.078125 643.320312 542.941406 644.195312 546.8125 L 645.855469 549.550781 L 648.175781 550.796875 C 651.660156 550.695312 651.660156 550.695312 654.808594 549.46875 C 656.4375 546.210938 656.40625 543.894531 656.46875 540.261719 L 656.574219 536.742188 C 656.378906 533.5 656.378906 533.5 654.457031 531.132812 L 652.15625 529.5625 Z M 482.316406 526.910156 L 484.972656 530.890625 C 485.230469 535.34375 485.230469 535.34375 485.136719 540.429688 L 485.066406 545.542969 L 484.972656 549.46875 L 488.953125 549.46875 L 488.953125 552.121094 C 482.960938 553.621094 482.960938 553.621094 479.832031 552.785156 C 476.707031 551.855469 476.707031 551.855469 472.285156 552.953125 L 467.722656 553.449219 L 465.070312 552.039062 C 463.742188 549.46875 463.742188 549.46875 463.328125 545.570312 L 465.070312 541.507812 C 469.3125 539.15625 473.710938 537.625 478.335938 536.199219 L 477.011719 530.890625 L 471.703125 530.890625 L 470.375 534.871094 L 465.070312 533.542969 C 465.320312 531.054688 465.320312 531.054688 466.394531 528.238281 C 471.804688 524.894531 476.285156 525.429688 482.316406 526.910156 M 477.011719 540.179688 C 473.527344 542.023438 473.527344 542.023438 470.375 544.160156 L 471.703125 549.46875 L 478.335938 548.140625 L 479.664062 541.507812 Z M 410.796875 526.210938 C 413.320312 526.910156 413.320312 526.910156 416.554688 528.984375 C 419.003906 532.804688 419.742188 535.738281 420.089844 540.230469 C 419.957031 542.832031 419.957031 542.832031 418.378906 546.566406 C 415.902344 549.554688 414.085938 551.59375 410.667969 553.449219 C 406.851562 554.03125 406.851562 554.03125 402.707031 553.449219 C 398.3125 550.960938 398.3125 550.960938 394.746094 548.140625 C 392.996094 544.644531 393.070312 541.429688 393.128906 537.570312 C 393.417969 534.871094 393.417969 534.871094 395.078125 531.054688 C 397.398438 528.238281 397.398438 528.238281 399.640625 526.410156 C 403.589844 525.34375 406.777344 525.542969 410.796875 526.210938 M 402.707031 529.5625 L 400.054688 532.21875 C 399.382812 536.683594 399.433594 541.019531 400.054688 545.488281 C 402.429688 548.984375 402.429688 548.984375 405.359375 550.796875 L 411.996094 548.140625 C 412.292969 546.265625 412.5625 544.382812 412.824219 542.5 L 413.289062 539.332031 C 413.5 536.164062 413.5 536.164062 412.273438 533.222656 L 410.667969 530.890625 C 406.742188 529.574219 406.742188 529.574219 402.707031 529.5625 M 966.621094 526.910156 L 978.5625 526.910156 L 979.890625 533.542969 L 982.546875 533.542969 L 983.871094 526.910156 L 994.488281 526.910156 L 994.488281 529.5625 L 990.589844 532.050781 C 986.5625 534.453125 986.5625 534.453125 984.949219 537.359375 L 985.199219 540.179688 C 988.082031 544.503906 988.082031 544.503906 991.832031 548.140625 L 995.8125 549.46875 L 995.8125 552.121094 C 987.78125 553.417969 987.78125 553.417969 985.199219 553.449219 C 982.25 550.5 981.316406 548.027344 979.890625 544.160156 L 975.910156 546.8125 L 975.910156 552.121094 L 966.621094 552.121094 L 966.621094 549.46875 L 973.257812 542.832031 L 974.582031 538.851562 C 973.003906 535.367188 973.003906 535.367188 970.601562 532.21875 L 966.621094 529.5625 Z M 763.613281 526.910156 L 766.265625 530.890625 C 766.523438 535.34375 766.523438 535.34375 766.433594 540.429688 L 766.359375 545.542969 L 766.265625 549.46875 L 771.574219 550.796875 C 768.589844 552.207031 768.589844 552.207031 764.941406 553.449219 C 763.160156 553.046875 761.390625 552.605469 759.632812 552.121094 L 755.652344 552.871094 C 751.671875 553.449219 751.671875 553.449219 748.519531 552.207031 L 746.363281 550.796875 C 746.199219 546.980469 746.199219 546.980469 746.363281 542.832031 C 749.148438 540.050781 750.847656 539.316406 754.492188 538.023438 C 755.453125 537.679688 756.414062 537.332031 757.402344 536.976562 L 759.632812 536.199219 L 758.304688 530.890625 L 754.324219 530.890625 L 751.671875 534.871094 L 747.691406 534.871094 C 748.023438 531.71875 748.023438 531.71875 749.015625 528.238281 C 753.546875 524.402344 758.15625 525.59375 763.613281 526.910156 M 752.996094 542.832031 L 752.996094 549.46875 L 759.632812 548.140625 L 760.960938 541.507812 C 755.949219 541.109375 755.949219 541.109375 752.996094 542.832031 M 567.15625 525.75 C 571.21875 526.910156 571.21875 526.910156 574.453125 529.894531 L 576.527344 533.542969 L 575.199219 540.179688 L 557.949219 540.179688 L 561.929688 546.8125 C 564.3125 548.265625 564.3125 548.265625 567.238281 548.140625 C 571.476562 546.988281 571.476562 546.988281 575.199219 545.488281 C 574.867188 547.976562 574.867188 547.976562 573.871094 550.796875 C 571.800781 552.539062 571.800781 552.539062 568.5625 553.449219 C 564.824219 553.585938 561.523438 553.253906 557.949219 552.121094 C 554.714844 549.21875 554.714844 549.21875 552.640625 545.488281 C 551.398438 541.507812 551.398438 541.507812 551.316406 537.523438 C 553.285156 533.285156 555.679688 529.90625 559.277344 526.910156 C 563.257812 525.582031 563.257812 525.582031 567.15625 525.75 M 561.929688 529.5625 L 559.277344 532.21875 L 559.277344 536.199219 L 569.890625 536.199219 L 568.5625 530.890625 C 565.382812 529.988281 565.382812 529.988281 561.929688 529.5625 M 1238.796875 525.085938 C 1242.609375 525.582031 1242.609375 525.582031 1246.589844 528.238281 L 1246.589844 533.542969 L 1234.648438 529.5625 L 1237.300781 534.871094 C 1239.910156 536.285156 1242.566406 537.613281 1245.261719 538.851562 L 1247.917969 541.507812 C 1248.5 545.40625 1248.5 545.40625 1247.917969 549.46875 C 1245.261719 552.039062 1245.261719 552.039062 1241.28125 553.449219 C 1236.625 553.421875 1232.226562 552.902344 1228.015625 550.796875 L 1228.015625 544.160156 L 1230.089844 546.070312 C 1234.207031 548.710938 1237.789062 549.003906 1242.609375 549.46875 C 1241.648438 546.847656 1241.648438 546.847656 1239.957031 544.160156 C 1237.425781 542.6875 1237.425781 542.6875 1234.566406 541.671875 C 1231.699219 540.375 1231.699219 540.375 1229.339844 538.851562 C 1228.015625 534.539062 1228.015625 534.539062 1228.015625 530.890625 C 1231.664062 527.453125 1233.746094 525.691406 1238.796875 525.085938 M 785.921875 525.996094 L 790.148438 526.910156 L 791.476562 533.542969 L 789.15625 532.21875 C 785.90625 530.53125 785.90625 530.53125 780.863281 530.890625 L 782.1875 534.871094 C 784.628906 536.265625 784.628906 536.265625 787.496094 537.359375 C 790.382812 538.71875 790.382812 538.71875 792.804688 540.179688 C 794.378906 543.496094 794.378906 543.496094 794.128906 546.8125 C 792.804688 549.800781 792.804688 549.800781 790.148438 552.121094 C 785.671875 553.285156 785.671875 553.285156 780.863281 553.449219 C 776.964844 552.207031 776.964844 552.207031 774.226562 550.796875 L 774.226562 544.160156 L 781.09375 548.308594 C 783.667969 549.753906 783.667969 549.753906 787.496094 549.46875 C 786.527344 546.878906 786.527344 546.878906 784.84375 544.160156 C 782.269531 542.40625 782.269531 542.40625 779.371094 541.007812 C 776.523438 539.328125 776.523438 539.328125 774.226562 537.523438 L 773.148438 533.378906 L 774.226562 529.5625 C 778.308594 525.730469 780.316406 525.539062 785.921875 525.996094 M 500.894531 512.3125 L 500.894531 549.46875 L 504.875 549.46875 L 504.875 552.121094 L 490.28125 552.121094 L 491.605469 549.46875 L 494.261719 549.46875 L 494.261719 516.292969 L 490.28125 514.964844 C 494.375 512.625 495.894531 512.3125 500.894531 512.3125 M 1257.207031 520.273438 L 1261.1875 520.273438 L 1261.1875 526.910156 L 1269.148438 526.910156 L 1267.820312 530.890625 L 1261.1875 530.890625 L 1262.511719 548.140625 L 1269.148438 548.140625 L 1267.820312 552.121094 C 1263.425781 553.035156 1263.425781 553.035156 1258.53125 553.449219 C 1256.25 552.082031 1256.25 552.082031 1254.550781 549.46875 C 1254.164062 545.015625 1254.164062 545.015625 1254.304688 539.929688 L 1254.414062 534.8125 L 1254.550781 530.890625 L 1250.570312 530.890625 L 1251.898438 525.582031 L 1254.550781 525.582031 Z M 672.058594 518.949219 L 674.714844 518.949219 L 676.039062 525.582031 L 682.675781 526.910156 L 682.675781 530.890625 L 674.714844 530.890625 L 676.039062 548.140625 L 684 549.46875 L 682.675781 552.121094 C 678.195312 553.117188 678.195312 553.117188 673.386719 553.449219 L 669.40625 550.796875 C 667.953125 546.4375 667.945312 543.183594 667.996094 538.605469 L 668.03125 534.234375 L 668.078125 530.890625 L 664.097656 529.5625 C 665.359375 527.789062 666.632812 526.019531 667.914062 524.253906 L 670.058594 521.269531 Z M 1197.496094 518.949219 L 1200.148438 518.949219 L 1200.148438 526.910156 L 1208.113281 526.910156 L 1206.785156 530.890625 L 1200.148438 530.890625 L 1201.476562 548.140625 L 1209.4375 548.140625 C 1207.28125 550.878906 1207.28125 550.878906 1204.128906 553.449219 C 1199.984375 553.367188 1199.984375 553.367188 1196.167969 552.121094 L 1193.515625 548.140625 C 1193.257812 543.980469 1193.257812 543.980469 1193.351562 539.269531 L 1193.421875 534.523438 L 1193.515625 530.890625 L 1189.535156 529.5625 C 1190.796875 527.789062 1192.066406 526.019531 1193.351562 524.253906 L 1195.496094 521.269531 Z M 722.480469 526.910156 L 725.132812 529.5625 C 724.636719 532.382812 724.636719 532.382812 723.808594 534.871094 L 719.828125 533.542969 L 718.5 530.890625 L 711.867188 530.890625 C 710.28125 533.050781 710.28125 533.050781 709.210938 536.199219 C 709.3125 540.996094 709.3125 540.996094 710.539062 545.488281 L 714.519531 548.140625 C 717.566406 548.175781 717.566406 548.175781 720.738281 547.644531 L 723.988281 547.199219 L 726.460938 546.8125 C 724.386719 549.386719 724.386719 549.386719 721.152344 552.121094 C 716.675781 553.367188 716.675781 553.367188 711.867188 553.449219 C 707.386719 551.789062 707.386719 551.789062 703.902344 549.46875 C 702.261719 544.542969 702.015625 539.996094 702.578125 534.871094 C 704.21875 531.09375 705.625 528.996094 708.796875 526.410156 C 713.671875 525.09375 717.523438 525.949219 722.480469 526.910156 M 1212.09375 526.910156 L 1220.054688 526.910156 C 1222.085938 530.976562 1221.515625 535.226562 1221.464844 539.683594 L 1221.445312 542.523438 C 1221.425781 544.835938 1221.40625 547.152344 1221.378906 549.46875 L 1225.359375 549.46875 L 1225.359375 552.121094 L 1210.765625 552.121094 L 1212.09375 549.46875 L 1214.746094 549.46875 L 1214.746094 530.890625 L 1210.765625 529.5625 Z M 693.289062 525.582031 L 695.941406 526.910156 L 695.941406 549.46875 L 699.921875 550.796875 L 697.269531 553.449219 C 694.398438 553.417969 694.398438 553.417969 691.132812 552.953125 L 687.847656 552.507812 L 685.328125 552.121094 L 686.65625 549.46875 L 689.308594 549.46875 C 689.378906 546.703125 689.433594 543.941406 689.472656 541.175781 L 689.566406 536.507812 C 689.320312 532.445312 688.789062 530.304688 686.65625 526.910156 C 688.851562 526.394531 691.0625 525.949219 693.289062 525.582031 M 957.335938 525.582031 L 959.988281 526.910156 L 959.988281 549.46875 L 963.96875 549.46875 L 963.96875 552.121094 L 950.699219 552.121094 L 950.699219 549.46875 L 953.355469 549.46875 L 954.679688 530.890625 L 949.375 528.238281 C 951.996094 527.269531 954.65625 526.386719 957.335938 525.582031 M 729.113281 526.910156 L 738.402344 526.910156 L 738.402344 549.46875 L 742.382812 549.46875 L 742.382812 552.121094 L 729.113281 552.121094 L 731.769531 548.140625 C 732.191406 544.375 732.191406 544.375 732.101562 540.261719 L 732.121094 536.078125 C 731.777344 532.308594 731.058594 530.113281 729.113281 526.910156 M 954.679688 514.964844 L 961.316406 516.292969 L 959.988281 521.601562 L 953.355469 520.273438 Z M 1214.746094 514.964844 L 1221.378906 516.292969 L 1220.054688 521.601562 L 1214.746094 521.601562 Z M 733.09375 514.964844 L 738.402344 514.964844 L 738.402344 521.601562 L 731.769531 520.273438 Z M 690.636719 514.964844 L 695.941406 514.964844 L 694.617188 521.601562 L 689.308594 520.273438 Z M 690.636719 514.964844 " fill-opacity="1" fill-rule="nonzero"/></svg>